#N canvas 623 249 725 437 12;
#X obj 25 129 bng 15 250 50 0 empty empty empty 17 7 0 10 #fcfcfc #000000
#000000;
#X obj 7 78 fudiformat -u;
#X obj 7 102 list tosymbol;
#X obj 7 156 z4th;
#X msg 8 7 1 1 + .;
#X connect 0 0 3 0;
#X connect 1 0 2 0;
#X connect 2 0 3 0;
#X connect 4 0 1 0;
